<svg xmlns="http://www.w3.org/2000/svg" xmlns:xlink="http://www.w3.org/1999/xlink" width="2000" zoomAndPan="magnify" viewBox="0 0 1500 1499.999933" height="2000" preserveAspectRatio="xMidYMid meet" version="1.0"><path fill="#000000" d="M 382.566406 1141.199219 L 396.414062 1154.894531 L 397.800781 1156.277344 C 440.882812 1200.898438 440.417969 1272.753906 396.414062 1316.757812 C 352.410156 1360.765625 280.554688 1361.226562 235.933594 1318.144531 L 234.550781 1316.757812 L 220.703125 1303.066406 L 183.003906 1265.214844 C 138.539062 1220.746094 138.539062 1147.96875 183.003906 1103.347656 C 227.472656 1058.882812 300.402344 1058.882812 344.871094 1103.347656 Z M 1146.042969 514.972656 L 1315.910156 345.105469 C 1360.375 300.636719 1360.375 227.859375 1315.910156 183.238281 C 1271.289062 138.773438 1198.511719 138.773438 1154.042969 183.238281 L 984.175781 353.105469 L 903.246094 434.039062 C 858.777344 478.503906 858.777344 551.28125 903.246094 595.902344 L 984.175781 676.835938 L 998.640625 691.144531 L 1155.121094 847.625 C 1199.585938 892.09375 1272.363281 892.09375 1316.984375 847.625 C 1361.453125 803.160156 1361.453125 730.226562 1316.984375 685.761719 L 1160.503906 529.28125 Z M 189.46875 184.316406 L 189.46875 184.164062 C 233.933594 139.695312 306.867188 139.695312 351.332031 184.164062 L 1314.832031 1147.816406 C 1359.453125 1192.28125 1359.453125 1265.214844 1314.832031 1309.679688 C 1270.363281 1354.148438 1197.585938 1354.148438 1152.964844 1309.679688 L 189.46875 346.027344 C 145 301.5625 145 228.78125 189.46875 184.316406 Z M 188.082031 645.601562 C 232.550781 601.136719 305.328125 601.136719 349.949219 645.601562 L 459.652344 755.308594 L 697.066406 992.71875 L 853.546875 1149.199219 C 898.011719 1193.667969 898.011719 1266.597656 853.546875 1311.066406 C 808.925781 1355.53125 736.148438 1355.53125 691.679688 1311.066406 L 535.199219 1154.585938 L 297.789062 917.171875 L 188.082031 807.46875 C 143.617188 763 143.617188 690.070312 188.082031 645.601562 Z M 188.082031 645.601562 " fill-opacity="1" fill-rule="evenodd"/></svg>
